<?xml version="1.0" encoding="utf-8"?>
<!-- Generator: Adobe Illustrator 17.0.2, SVG Export Plug-In . SVG Version: 6.00 Build 0)  -->
<!DOCTYPE svg PUBLIC "-//W3C//DTD SVG 1.0//EN" "http://www.w3.org/TR/2001/REC-SVG-20010904/DTD/svg10.dtd">
<svg version="1.0" id="Layer_1" xmlns="http://www.w3.org/2000/svg" xmlns:xlink="http://www.w3.org/1999/xlink" x="0px" y="0px"
	 width="477.697px" height="207.186px" viewBox="0 0 477.697 207.186" enable-background="new 0 0 477.697 207.186"
	 xml:space="preserve">
<g>
	<path fill="#FFFFFF" d="M354.63,111.579v47.675c0,0,12.569,8.019,16.906,8.67c4.33,0.651,30.555-3.683,30.774-4.552
		c0.215-0.867-5.203-53.965-5.203-53.965l-42.477-1.086"/>
	<path fill="#FFFFFF" d="M290.479,113.741c0,0,2.382,9.971,3.254,10.403c0.867,0.438,13.438,1.299,13.438,1.299l1.081,33.812
		l10.139,3.032l10.016-28.393c0,0,8.019-8.232,8.668-10.613c0.651-2.387-2.599-13.873-2.599-13.873h-23.409h-16.252"/>
	<path fill="#FFFFFF" d="M229.579,124.582v29.47c0,0,15.174,7.152,18.423,9.321c3.252,2.162,22.973-2.381,22.973-2.381l3.251-28.828
		l-4.552-17.339l-11.268-5.416l-17.773,1.949l-8.019,3.679"/>
	<path fill="#FFFFFF" d="M165.431,115.256l3.252,47.25l13.002,0.867l4.118-4.768l17.774,2.819l11.054-3.689l-2.604-38.577
		c0,0-1.517-9.749-2.817-9.749c-1.3,0-13.868,6.502-13.868,6.502l-14.738-3.248l-5.852-3.254l-6.717,1.296"/>
	<path fill="#FFFFFF" d="M99.549,135.99l7.803,25.001l31.854,5.539l11.922-17.897c0,0-2.163-27.308-2.382-27.958
		c-0.217-0.651-2.602-10.175-3.249-10.181c-0.651,0-13.003,0-13.441,1.086c-0.435,1.082-4.489,13.003-4.489,13.003l-10.028-11.06
		l-15.605-4.115"/>
	<path fill="#FFFFFF" d="M39.515,110.493v50.276c0,0,12.355,6.724,13.871,5.635c1.518-1.08,10.402-14.089,11.484-14.52
		c1.086-0.432,21.236-9.321,21.457-10.4c0.219-1.082-3.032-19.504-4.117-21.238c-1.081-1.733-9.866-10.838-11.216-10.838
		c-1.352,0-21.997,1.949-21.997,1.949"/>
	<polygon fill="#FFFFFF" points="401.333,40.752 401.333,92.986 356.686,88.002 355.386,37.939 	"/>
	<path fill="#FFFFFF" d="M293.185,39.022v12.787l13.655,1.514l2.383,34.679l20.154,3.749l-1.514-37.557c0,0,8.666-0.219,8.666-1.302
		c0-1.082,0-14.514,0-14.514l-27.955-2.387"/>
	<path fill="#FFFFFF" d="M229.903,54.625v26.438l22.32,13.009l19.724-2.321c0,0,6.719-21.739,6.719-23.037
		c0-1.302-6.938-27.308-6.938-27.308l-22.318-4.549l-18.425,8.883"/>
	<path fill="#FFFFFF" d="M165.753,38.371l1.733,47.898c0,0,8.67,4.762,9.538,4.762c0.862,0,10.617-10.613,10.617-10.613
		l12.568,10.613c0,0,13.003,2.381,12.787-1.517c-0.213-3.898,0.655-33.584,0.006-35.758c-0.655-2.168-5.205-18.203-5.859-17.765
		c-0.648,0.435-12.568,9.53-12.568,9.53l-19.07-6.936"/>
	<path fill="#FFFFFF" d="M102.256,42.054l1.301,43.343c0,0,23.967,8.888,24.009,8.888s16.732,2.6,18.465,0
		c1.736-2.6,5.633-13.654,5.633-17.558c0-3.898-10.619-40.736-10.619-40.736s-8.449,1.074-8.667,2.813
		c-0.217,1.733-5.422,21.019-5.422,21.019L113.74,38.803l-8.235-0.219"/>
	<path fill="#FFFFFF" d="M37.669,40.968v48.545c0,0,17.338-1.517,18.423-1.949c1.082-0.432,8.885-8.451,11.054-9.533
		c2.167-1.086,11.7-5.638,14.302-8.022c2.6-2.381,6.936-11.704,6.505-12.355c-0.436-0.645-12.357-18.2-13.225-18.416
		c-0.865-0.219-31.857-3.248-31.857-3.248"/>
	<g>
		<g>
			<path d="M98.17,34.209c7.338,0,14.574,0,22.01,0c0.067,1.113,0.136,2.216,0.217,3.518c1.075,0,2.167,0,3.471,0
				c0,1.293,0,2.384,0,3.596c1.299,0,2.387,0,3.669,0c0-2.339,0-4.642,0-7.071c7.472,0,14.753,0,22.244,0c0,1.146,0,2.24,0,3.497
				c1.294,0.054,2.392,0.105,3.632,0.162c0,1.128,0,2.177,0,3.431c1.226,0,2.317,0,3.55,0c0,17.288,0,34.355,0,51.61
				c-1.064,0.069-2.151,0.141-3.45,0.222c0,1.238,0,2.399,0,3.698c-1.258,0-2.3,0-3.582,0c-0.058,1.215-0.111,2.3-0.17,3.527
				c-12.28,0-24.49,0-36.916,0c0-1.062,0-2.156,0-3.389c-1.255,0-2.294,0-3.555,0c0-1.304,0-2.465,0-3.844
				c-1.3-0.066-2.393-0.117-3.692-0.177c0-1.158,0-2.252,0-3.485c-1.357-0.072-2.525-0.138-3.825-0.219
				c-0.051-1.125-0.099-2.168-0.157-3.419c-1.11,0-2.207,0-3.447,0C98.17,68.593,98.17,51.527,98.17,34.209z M112.792,85.597
				c7.556,0,14.883,0,22.217,0c0.061-1.223,0.115-2.258,0.177-3.497c1.243,0,2.335,0,3.57,0c0-1.319,0-2.426,0-3.637
				c1.233-0.093,2.33-0.174,3.413-0.255c0-12.313,0-24.504,0-36.661c-2.417,0-4.653,0-7.125,0c0,11.051,0,21.987,0,32.972
				c-1.395,0.081-2.561,0.15-3.777,0.219c-0.052,1.257-0.102,2.351-0.148,3.428c-4.981,0-9.733,0-14.585,0
				c-0.067-1.226-0.127-2.321-0.189-3.47c-1.291-0.057-2.38-0.111-3.609-0.165c0-11.126,0-22.006,0-32.967c-2.452,0-4.735,0-7.094,0
				c0,12.262,0,24.405,0,36.649c1.191,0.081,2.29,0.162,3.431,0.243c0.069,1.284,0.13,2.438,0.201,3.806c1.273,0,2.36,0,3.519,0
				C112.792,83.48,112.792,84.469,112.792,85.597z"/>
			<path d="M162.063,34.239c7.407,0,14.69,0,22.107,0c0,1.176,0,2.225,0,3.482c1.216,0,2.309,0,3.612,0c0,1.286,0,2.375,0,3.596
				c1.294,0,2.381,0,3.664,0c0-2.324,0-4.621,0-7.053c7.473,0,14.754,0,22.243,0c0,1.122,0,2.207,0,3.515c1.294,0,2.39,0,3.62,0
				c0.069,1.29,0.129,2.387,0.193,3.617c1.14,0,2.179,0,3.374,0c0,19.735,0,39.318,0,59.029c-7.215,0-14.426,0-21.776,0
				c-0.057-1.082-0.111-2.12-0.18-3.383c-1.165-0.063-2.329-0.132-3.684-0.204c-0.063-1.152-0.126-2.315-0.195-3.629
				c-1.133,0-2.221,0-3.516,0c0,2.372,0,4.726,0,7.209c-7.41,0-14.624,0-21.97,0c-0.049-1.083-0.1-2.129-0.159-3.377
				c-1.174,0-2.332,0-3.654,0c-0.085-1.362-0.156-2.519-0.24-3.851c-1.135-0.081-2.228-0.156-3.44-0.246
				C162.063,73.407,162.063,53.941,162.063,34.239z M169.611,41.541c0,14.796,0,29.461,0,44.08c2.438,0,4.726,0,7.166,0
				c0-9.839,0-19.534,0-29.275c1.246,0,2.339,0,3.513,0c0.056,1.215,0.108,2.315,0.161,3.431c1.378,0.078,2.543,0.135,3.705,0.195
				c0.063,1.296,0.119,2.402,0.173,3.56c1.242,0.069,2.283,0.117,3.425,0.18c0.076,1.25,0.147,2.408,0.236,3.773
				c1.24,0,2.33,0,3.569,0c0,1.254,0,2.291,0,3.593c2.55,0,4.965,0,7.531,0c0,5.026,0,9.782,0,14.568c2.462,0,4.753,0,7.01,0
				c0-14.79,0-29.449,0-44.098c-2.407,0-4.644,0-7.13,0c0,7.374,0,14.646,0,21.907c-1.42,0-2.584,0-3.765,0
				c-0.061-1.248-0.111-2.348-0.17-3.518c-1.279-0.063-2.366-0.117-3.662-0.174c0-1.313,0-2.402,0-3.625c-1.262,0-2.303,0-3.554,0
				c0-1.245,0-2.333,0-3.623c-1.306,0-2.4,0-3.674,0c0-1.314,0-2.417,0-3.554c-1.354-0.093-2.522-0.171-3.699-0.246
				c-0.066-1.272-0.12-2.357-0.184-3.53c-1.284-0.069-2.375-0.126-3.473-0.183c-0.06-1.287-0.108-2.318-0.161-3.461
				C174.273,41.541,172.034,41.541,169.611,41.541z"/>
			<path d="M403.442,34.227c0.057,1.206,0.105,2.252,0.162,3.509c1.108,0,2.204,0,3.518,0c0,1.293,0,2.381,0,3.605
				c1.296,0.072,2.39,0.138,3.576,0.201c0,7.338,0,14.574,0,22.039c-2.323,0-4.624,0-7.043,0c0,3.728,0,7.227,0,10.958
				c1.066,0,2.161,0,3.458,0c0,1.307,0,2.393,0,3.664c1.281,0.087,2.372,0.156,3.572,0.234c0,7.326,0,14.559,0,21.948
				c-17.023,0-34.091,0-51.361,0c-0.046-1.043-0.1-2.138-0.153-3.362c-1.255-0.063-2.42-0.126-3.702-0.189
				c-0.06-1.254-0.12-2.414-0.18-3.662c-1.195-0.075-2.243-0.138-3.431-0.204c0-19.573,0-39.102,0-58.741
				C369.023,34.227,386.112,34.227,403.442,34.227z M395.983,41.577c-12.325,0-24.465,0-36.648,0c0,14.757,0,29.379,0,44.086
				c12.241,0,24.385,0,36.574,0c0-2.459,0-4.81,0-7.368c-9.82,0-19.512,0-29.306,0c0-4.951,0-9.713,0-14.676
				c7.404,0,14.697,0,22.04,0c0-2.57,0-4.924,0-7.47c-7.424,0-14.713,0-22.034,0c0-2.489,0-4.789,0-7.353c9.847,0,19.588,0,29.374,0
				C395.983,46.264,395.983,44.015,395.983,41.577z"/>
			<path d="M284.839,92.968c-1.153,0.066-2.198,0.123-3.453,0.189c0,1.233,0,2.39,0,3.677c-1.306,0.057-2.407,0.111-3.609,0.168
				c-0.057,1.155-0.109,2.195-0.172,3.389c-12.258,0-24.469,0-36.899,0c0-1.05,0-2.144,0-3.356
				c-1.304-0.075-2.399-0.138-3.635-0.204c0-1.206,0-2.315,0-3.662c-1.228-0.072-2.323-0.123-3.615-0.189c0-1.14,0-2.246,0-3.479
				c-1.36-0.072-2.526-0.138-3.832-0.213c-0.049-1.125-0.102-2.168-0.156-3.425c-1.109,0-2.204,0-3.447,0
				c0-14.868,0-29.535,0-44.332c1.123-0.054,2.225-0.114,3.416-0.174c0.062-1.149,0.12-2.186,0.186-3.431
				c1.196-0.063,2.361-0.114,3.718-0.18c0-1.152,0-2.252,0-3.491c12.342,0,24.475,0,36.746,0c0.057,1.152,0.113,2.249,0.174,3.479
				c1.165,0.06,2.263,0.12,3.47,0.192c0.051,1.121,0.1,2.168,0.157,3.419c1.199,0,2.357,0,3.734,0c0,1.304,0,2.399,0,3.712
				c1.297,0,2.392,0,3.611,0c0.068,1.32,0.129,2.426,0.192,3.677c1.131,0.084,2.231,0.162,3.416,0.243
				C284.839,63.669,284.839,78.289,284.839,92.968z M240.768,74.549c0-7.389,0-14.596,0-22.009c1.237,0,2.327,0,3.45,0
				c0.061-1.314,0.109-2.423,0.162-3.545c4.966,0,9.721,0,14.576,0c0.069,1.232,0.127,2.33,0.188,3.518
				c1.277,0.072,2.439,0.138,3.698,0.204c0.063,1.211,0.114,2.303,0.165,3.362c2.497,0,4.786,0,7.073,0c0-2.456,0-4.759,0-7.119
				c-1.199-0.093-2.297-0.171-3.429-0.246c-0.063-1.272-0.119-2.366-0.177-3.542c-1.248-0.057-2.342-0.105-3.642-0.168
				c0-1.302,0-2.39,0-3.419c-7.511,0-14.801,0-22.293,0c0,1.23,0,2.333,0,3.449c-1.248,0.051-2.299,0.105-3.429,0.156
				c-0.064,1.233-0.127,2.336-0.193,3.524c-1.177,0.093-2.273,0.171-3.413,0.261c0,9.812,0,19.505,0,29.251
				c1.211,0.078,2.31,0.15,3.62,0.237c0,1.32,0,2.477,0,3.769c1.264,0,2.303,0,3.566,0c0,1.242,0,2.33,0,3.407
				c7.511,0,14.792,0,22.173,0c0.053-1.218,0.103-2.306,0.159-3.527c1.27,0,2.309,0,3.474,0c0.057-1.283,0.111-2.447,0.165-3.676
				c1.246-0.081,2.333-0.147,3.399-0.222c0-2.501,0-4.792,0-7.101c-2.426,0-4.719,0-7.067,0c-0.057,1.221-0.111,2.321-0.169,3.617
				c-1.386,0-2.543,0-3.705,0c-0.062,1.265-0.11,2.309-0.161,3.394c-4.931,0-9.728,0-14.588,0c-0.061-1.211-0.111-2.249-0.171-3.416
				C243.036,74.657,241.984,74.606,240.768,74.549z"/>
			<path d="M41.541,96.96c-1.265,0-2.384,0-3.654,0c-0.078-1.296-0.149-2.456-0.228-3.769c-1.144-0.081-2.246-0.162-3.45-0.249
				c0-19.549,0-39.03,0-58.663c14.686,0,29.338,0,44.187,0c0,1.155,0,2.246,0,3.47c1.278,0.06,2.375,0.108,3.567,0.165
				c0.055,1.164,0.099,2.201,0.153,3.452c1.215,0,2.377,0,3.752,0c0,1.301,0,2.399,0,3.704c1.297,0,2.395,0,3.596,0
				c0.07,1.322,0.129,2.432,0.196,3.662c1.137,0.084,2.236,0.168,3.416,0.258c0,9.776,0,19.457,0,29.227
				c-1.15,0.063-2.194,0.123-3.458,0.183c0,1.235,0,2.387,0,3.664c-1.315,0.06-2.414,0.111-3.612,0.165
				c-0.058,1.157-0.111,2.198-0.174,3.437c-7.334,0-14.621,0-22.132,0c0,5.014,0,9.824,0,14.76c-7.442,0-14.651,0-21.99,0
				C41.656,99.317,41.607,98.285,41.541,96.96z M41.754,41.496c0,14.838,0,29.494,0,44.125c2.435,0,4.723,0,7.16,0
				c0-4.897,0-9.665,0-14.694c7.488,0,14.82,0,22.163,0c0.072-1.308,0.121-2.348,0.186-3.587c1.224,0,2.314,0,3.576,0
				c0-1.311,0-2.42,0-3.596c1.266-0.09,2.368-0.171,3.479-0.258c0-4.915,0-9.683,0-14.527c-1.197-0.09-2.294-0.165-3.431-0.246
				c-0.063-1.248-0.123-2.348-0.195-3.674c-1.218,0-2.309,0-3.61,0c0-1.314,0-2.408,0-3.545
				C61.225,41.496,51.585,41.496,41.754,41.496z"/>
			<path d="M340.609,37.891c1.282,0,2.327,0,3.472,0c0.066,1.169,0.119,2.213,0.186,3.467c1.145,0.048,2.243,0.102,3.492,0.153
				c0,7.302,0,14.568,0,22.074c-4.836,0-9.592,0-14.558,0c0,12.398,0,24.546,0,36.826c-7.437,0-14.664,0-22.135,0
				c-0.042-1.043-0.091-2.135-0.151-3.433c-1.148,0-2.243,0-3.492,0c-0.069-1.353-0.132-2.519-0.195-3.806
				c-1.154-0.075-2.252-0.138-3.574-0.228c0-9.776,0-19.469,0-29.323c-2.54,0-4.86,0-7.314,0c-0.075-1.269-0.136-2.369-0.211-3.68
				c-1.128,0-2.224,0-3.527,0c0-1.296,0-2.399,0-3.625c-1.294-0.072-2.387-0.123-3.587-0.189c0-7.32,0-14.538,0-21.889
				c17.149,0,34.215,0,51.409,0C340.483,35.426,340.54,36.521,340.609,37.891z M310.993,48.861c0,12.415,0,24.561,0,36.784
				c2.551,0,4.896,0,7.458,0c0-12.265,0-24.411,0-36.832c5.014,0,9.823,0,14.622,0c0-2.579,0-4.876,0-7.248
				c-12.31,0-24.505,0-36.703,0c0,2.483,0,4.831,0,7.296C301.237,48.861,305.948,48.861,310.993,48.861z"/>
			<path d="M67.244,49.041c0,1.16,0,2.204,0,3.473c1.276,0.063,2.438,0.114,3.752,0.168c0,2.309,0,4.588,0,7.08
				c-1.147,0.057-2.302,0.111-3.625,0.174c-0.054,1.142-0.113,2.252-0.168,3.503c-6.065,0-12.066,0-18.206,0
				c0-4.732,0-9.479,0-14.398C54.982,49.041,60.976,49.041,67.244,49.041z"/>
		</g>
	</g>
	<g>
		<g>
			<path d="M98.164,106.76c7.338,0,14.58,0,22.012,0c0.072,1.119,0.144,2.216,0.222,3.518c1.068,0,2.164,0,3.471,0
				c0,1.302,0,2.387,0,3.602c1.299,0,2.384,0,3.669,0c0-2.342,0-4.645,0-7.074c7.472,0,14.75,0,22.244,0c0,1.142,0,2.243,0,3.494
				c1.289,0.057,2.392,0.105,3.632,0.165c0,1.128,0,2.171,0,3.431c1.223,0,2.317,0,3.548,0c0,17.285,0,34.358,0,51.61
				c-1.065,0.069-2.153,0.144-3.449,0.225c0,1.239,0,2.396,0,3.698c-1.257,0-2.299,0-3.582,0c-0.06,1.209-0.111,2.297-0.163,3.521
				c-12.28,0-24.495,0-36.919,0c0-1.065,0-2.156,0-3.392c-1.255,0-2.297,0-3.561,0c0-1.298,0-2.456,0-3.841
				c-1.293-0.063-2.392-0.114-3.687-0.18c0-1.149,0-2.249,0-3.473c-1.361-0.078-2.525-0.15-3.825-0.225
				c-0.054-1.122-0.103-2.168-0.157-3.422c-1.114,0-2.207,0-3.453,0C98.164,141.151,98.164,124.078,98.164,106.76z M112.789,158.145
				c7.557,0,14.889,0,22.22,0c0.059-1.218,0.114-2.252,0.177-3.491c1.237,0,2.335,0,3.57,0c0-1.32,0-2.423,0-3.638
				c1.233-0.09,2.33-0.177,3.408-0.255c0-12.313,0-24.504,0-36.655c-2.417,0-4.656,0-7.121,0c0,11.051,0,21.982,0,32.972
				c-1.398,0.075-2.563,0.141-3.771,0.213c-0.061,1.251-0.108,2.348-0.157,3.422c-4.975,0-9.73,0-14.585,0
				c-0.064-1.223-0.124-2.315-0.192-3.461c-1.289-0.063-2.372-0.117-3.612-0.168c0-11.126,0-22.009,0-32.967
				c-2.443,0-4.723,0-7.086,0c0,12.262,0,24.408,0,36.643c1.192,0.084,2.291,0.171,3.437,0.252c0.06,1.284,0.126,2.441,0.19,3.803
				c1.273,0,2.365,0,3.522,0C112.789,156.034,112.789,157.024,112.789,158.145z"/>
			<path d="M162.06,106.802c7.409,0,14.687,0,22.111,0c0,1.164,0,2.216,0,3.47c1.211,0,2.309,0,3.606,0c0,1.295,0,2.378,0,3.601
				c1.299,0,2.387,0,3.671,0c0-2.33,0-4.621,0-7.062c7.469,0,14.75,0,22.243,0c0,1.125,0,2.21,0,3.524c1.291,0,2.39,0,3.618,0
				c0.071,1.286,0.126,2.381,0.195,3.613c1.137,0,2.179,0,3.371,0c0,19.732,0,39.321,0,59.03c-7.212,0-14.428,0-21.773,0
				c-0.061-1.086-0.111-2.12-0.177-3.389c-1.171-0.063-2.33-0.126-3.69-0.198c-0.06-1.152-0.123-2.318-0.193-3.628
				c-1.135,0-2.219,0-3.513,0c0,2.369,0,4.732,0,7.209c-7.412,0-14.625,0-21.971,0c-0.055-1.086-0.105-2.129-0.16-3.371
				c-1.171,0-2.33,0-3.651,0c-0.087-1.367-0.16-2.528-0.241-3.854c-1.135-0.078-2.236-0.159-3.443-0.249
				C162.06,145.961,162.06,126.492,162.06,106.802z M169.605,114.092c0,14.802,0,29.461,0,44.083c2.441,0,4.729,0,7.172,0
				c0-9.842,0-19.534,0-29.275c1.246,0,2.339,0,3.513,0c0.054,1.211,0.105,2.309,0.159,3.431c1.379,0.072,2.543,0.132,3.706,0.195
				c0.061,1.296,0.119,2.399,0.175,3.557c1.236,0.075,2.276,0.123,3.42,0.183c0.081,1.245,0.151,2.411,0.234,3.773
				c1.24,0,2.333,0,3.566,0c0,1.254,0,2.288,0,3.593c2.554,0,4.968,0,7.533,0c0,5.026,0,9.785,0,14.568c2.465,0,4.758,0,7.016,0
				c0-14.79,0-29.449,0-44.092c-2.41,0-4.65,0-7.131,0c0,7.368,0,14.637,0,21.9c-1.421,0-2.581,0-3.765,0
				c-0.061-1.247-0.115-2.351-0.163-3.521c-1.285-0.06-2.372-0.117-3.668-0.174c0-1.311,0-2.402,0-3.62c-1.259,0-2.311,0-3.557,0
				c0-1.248,0-2.336,0-3.626c-1.308,0-2.397,0-3.671,0c0-1.313,0-2.417,0-3.56c-1.354-0.081-2.524-0.165-3.699-0.24
				c-0.066-1.269-0.126-2.363-0.184-3.53c-1.29-0.072-2.375-0.126-3.477-0.186c-0.054-1.278-0.103-2.315-0.156-3.461
				C174.27,114.092,172.031,114.092,169.605,114.092z"/>
			<path d="M403.442,106.781c0.053,1.205,0.1,2.255,0.159,3.508c1.107,0,2.203,0,3.521,0c0,1.29,0,2.378,0,3.605
				c1.297,0.072,2.386,0.144,3.575,0.198c0,7.341,0,14.571,0,22.039c-2.321,0-4.62,0-7.041,0c0,3.734,0,7.23,0,10.958
				c1.069,0,2.158,0,3.462,0c0,1.304,0,2.396,0,3.668c1.27,0.084,2.368,0.162,3.566,0.234c0,7.329,0,14.559,0,21.946
				c-17.026,0-34.09,0-51.366,0c-0.046-1.038-0.094-2.135-0.154-3.356c-1.248-0.066-2.413-0.126-3.695-0.195
				c-0.063-1.254-0.12-2.411-0.181-3.656c-1.193-0.078-2.239-0.138-3.426-0.21c0-19.571,0-39.099,0-58.738
				C369.023,106.781,386.107,106.781,403.442,106.781z M395.983,114.134c-12.325,0-24.462,0-36.646,0c0,14.754,0,29.38,0,44.089
				c12.237,0,24.384,0,36.568,0c0-2.468,0-4.822,0-7.377c-9.815,0-19.507,0-29.302,0c0-4.954,0-9.707,0-14.676
				c7.4,0,14.691,0,22.037,0c0-2.573,0-4.924,0-7.464c-7.418,0-14.712,0-22.037,0c0-2.492,0-4.792,0-7.356c9.851,0,19.59,0,29.38,0
				C395.983,118.818,395.983,116.572,395.983,114.134z"/>
			<path d="M284.836,165.522c-1.158,0.069-2.198,0.126-3.453,0.189c0,1.235,0,2.39,0,3.674c-1.307,0.06-2.405,0.114-3.608,0.168
				c-0.063,1.154-0.111,2.195-0.166,3.386c-12.261,0-24.474,0-36.904,0c0-1.041,0-2.138,0-3.353
				c-1.304-0.072-2.399-0.132-3.639-0.201c0-1.212,0-2.321,0-3.662c-1.223-0.072-2.31-0.123-3.618-0.189c0-1.146,0-2.249,0-3.473
				c-1.355-0.078-2.517-0.15-3.825-0.219c-0.053-1.121-0.105-2.171-0.159-3.428c-1.111,0-2.201,0-3.447,0
				c0-14.862,0-29.533,0-44.329c1.125-0.048,2.225-0.111,3.422-0.174c0.059-1.148,0.117-2.189,0.185-3.433
				c1.195-0.063,2.354-0.105,3.718-0.18c0-1.149,0-2.246,0-3.488c12.334,0,24.474,0,36.745,0c0.054,1.152,0.115,2.249,0.173,3.479
				c1.167,0.063,2.264,0.123,3.471,0.189c0.051,1.127,0.1,2.168,0.153,3.422c1.204,0,2.361,0,3.735,0c0,1.301,0,2.405,0,3.713
				c1.298,0,2.395,0,3.608,0c0.066,1.323,0.129,2.42,0.198,3.677c1.131,0.081,2.23,0.165,3.413,0.246
				C284.836,136.223,284.836,150.84,284.836,165.522z M240.762,147.103c0-7.389,0-14.595,0-22.014c1.237,0,2.333,0,3.456,0
				c0.056-1.308,0.112-2.414,0.163-3.539c4.959,0,9.719,0,14.574,0c0.061,1.236,0.124,2.33,0.19,3.518
				c1.272,0.075,2.44,0.138,3.693,0.198c0.06,1.218,0.114,2.309,0.166,3.365c2.497,0,4.787,0,7.073,0c0-2.45,0-4.756,0-7.122
				c-1.203-0.081-2.297-0.165-3.428-0.246c-0.064-1.263-0.124-2.363-0.181-3.533c-1.245-0.063-2.339-0.105-3.636-0.168
				c0-1.301,0-2.393,0-3.422c-7.514,0-14.807,0-22.294,0c0,1.226,0,2.336,0,3.446c-1.255,0.057-2.302,0.102-3.432,0.159
				c-0.069,1.235-0.129,2.339-0.19,3.523c-1.18,0.09-2.276,0.174-3.416,0.258c0,9.818,0,19.507,0,29.254
				c1.213,0.078,2.307,0.153,3.612,0.237c0,1.314,0,2.474,0,3.776c1.265,0,2.311,0,3.57,0c0,1.236,0,2.327,0,3.401
				c7.505,0,14.798,0,22.171,0c0.057-1.217,0.105-2.312,0.159-3.527c1.273,0,2.315,0,3.48,0c0.056-1.284,0.111-2.447,0.166-3.677
				c1.245-0.081,2.332-0.15,3.396-0.225c0-2.498,0-4.792,0-7.095c-2.425,0-4.717,0-7.068,0c-0.057,1.221-0.109,2.315-0.17,3.617
				c-1.382,0-2.537,0-3.703,0c-0.063,1.265-0.108,2.306-0.151,3.392c-4.944,0-9.743,0-14.591,0
				c-0.066-1.212-0.117-2.252-0.173-3.419C243.031,147.211,241.984,147.16,240.762,147.103z"/>
			<path d="M41.541,169.514c-1.271,0-2.381,0-3.654,0c-0.078-1.293-0.149-2.462-0.231-3.767c-1.146-0.078-2.248-0.168-3.447-0.255
				c0-19.546,0-39.021,0-58.663c14.686,0,29.338,0,44.184,0c0,1.155,0,2.249,0,3.47c1.281,0.063,2.378,0.114,3.572,0.171
				c0.048,1.158,0.091,2.198,0.151,3.449c1.221,0,2.366,0,3.747,0c0,1.295,0,2.399,0,3.713c1.302,0,2.395,0,3.599,0
				c0.069,1.316,0.124,2.423,0.192,3.659c1.14,0.081,2.242,0.165,3.414,0.252c0,9.773,0,19.46,0,29.23
				c-1.147,0.063-2.188,0.12-3.456,0.177c0,1.242,0,2.393,0,3.667c-1.31,0.063-2.41,0.111-3.605,0.165
				c-0.06,1.155-0.117,2.195-0.175,3.437c-7.337,0-14.624,0-22.132,0c0,5.014,0,9.83,0,14.76c-7.442,0-14.651,0-21.99,0
				C41.656,171.874,41.602,170.836,41.541,169.514z M41.754,114.047c0,14.841,0,29.5,0,44.134c2.431,0,4.722,0,7.163,0
				c0-4.909,0-9.671,0-14.703c7.479,0,14.817,0,22.157,0c0.068-1.304,0.126-2.342,0.189-3.581c1.219,0,2.312,0,3.573,0
				c0-1.316,0-2.42,0-3.596c1.271-0.096,2.371-0.171,3.482-0.261c0-4.915,0-9.683,0-14.533c-1.2-0.081-2.294-0.159-3.429-0.246
				c-0.069-1.245-0.124-2.342-0.196-3.662c-1.219,0-2.314,0-3.61,0c0-1.32,0-2.414,0-3.554
				C61.219,114.047,51.585,114.047,41.754,114.047z"/>
			<path d="M340.609,110.445c1.279,0,2.329,0,3.472,0c0.06,1.172,0.119,2.216,0.186,3.467c1.145,0.048,2.246,0.102,3.489,0.156
				c0,7.296,0,14.562,0,22.072c-4.833,0-9.589,0-14.555,0c0,12.394,0,24.548,0,36.826c-7.437,0-14.667,0-22.135,0
				c-0.046-1.044-0.091-2.141-0.145-3.434c-1.155,0-2.249,0-3.498,0c-0.075-1.359-0.129-2.522-0.195-3.803
				c-1.153-0.078-2.255-0.141-3.577-0.231c0-9.776,0-19.462,0-29.323c-2.543,0-4.857,0-7.314,0c-0.072-1.269-0.138-2.372-0.21-3.679
				c-1.126,0-2.225,0-3.525,0c0-1.302,0-2.399,0-3.626c-1.294-0.069-2.389-0.126-3.585-0.195c0-7.317,0-14.532,0-21.873
				c17.147,0,34.215,0,51.403,0C340.48,107.977,340.537,109.072,340.609,110.445z M310.993,121.415c0,12.415,0,24.557,0,36.784
				c2.551,0,4.899,0,7.454,0c0-12.265,0-24.411,0-36.829c5.017,0,9.826,0,14.627,0c0-2.579,0-4.888,0-7.251
				c-12.31,0-24.509,0-36.706,0c0,2.486,0,4.831,0,7.296C301.237,121.415,305.948,121.415,310.993,121.415z"/>
			<path d="M67.241,121.592c0,1.157,0,2.198,0,3.476c1.279,0.06,2.438,0.12,3.753,0.168c0,2.309,0,4.588,0,7.077
				c-1.141,0.054-2.303,0.114-3.624,0.174c-0.059,1.152-0.113,2.255-0.173,3.503c-6.065,0-12.064,0-18.2,0c0-4.726,0-9.47,0-14.398
				C54.982,121.592,60.973,121.592,67.241,121.592z"/>
		</g>
	</g>
	<polygon points="439.467,82.454 435.45,82.454 435.45,78.436 421.617,78.436 421.617,100.303 443.489,100.303 443.489,86.475 
		439.467,86.475 	"/>
</g>
</svg>
